<svg width="32" height="32" viewBox="0 0 32 32" fill="none" xmlns="http://www.w3.org/2000/svg">
<path d="M12.0857 10.9881L13.6454 15.2418L9.36835 16.0981L6.32922 10.9437L12.0857 10.9881Z" fill="#2B8FF7"/>
<path d="M26.5878 22.8723L30.3312 23.7151L31.3302 25.7818L29.0932 25.9463L26.5878 22.8723Z" fill="#074A90"/>
<path d="M20.2314 10.1158L26.9795 17.2437L22.518 18.2558L20.2314 10.1158Z" fill="#074A90"/>
<path d="M12.62 23.6L20.5418 21.5762L21.8495 25.9541L12.62 23.6Z" fill="#074A90"/>
<path d="M5.84172 16.5533L9.3684 16.098L12.62 23.6002L5.84172 16.5533Z" fill="#074A90"/>
<path d="M12.0858 10.988L10.899 7.8894L20.2314 10.1158L12.0858 10.988Z" fill="#074A90"/>
<path d="M0.696529 7.69946L7.86095 7.82623L12.0858 10.9882L0.696529 7.69946Z" fill="#074A90"/>
<path d="M4.18842 13.8158L0.696533 7.69946L9.36844 16.0982L4.18842 13.8158Z" fill="#074A90"/>
<path d="M12.0858 10.9879L20.2314 10.1158L22.5181 18.2557L12.0858 10.9879Z" fill="#0A5DB4"/>
<path d="M9.36841 16.098L20.5418 21.5765L12.6201 23.6003L9.36841 16.098Z" fill="#0A5DB4"/>
<path d="M20.5418 21.5764L29.0933 25.9462L21.8495 25.9542L20.5418 21.5764Z" fill="#0A5DB4"/>
<path d="M22.5181 18.2559L26.9796 17.2438L30.3312 23.7152L22.5181 18.2559Z" fill="#0A5DB4"/>
<path d="M7.86084 7.82605L10.899 7.88939L12.0857 10.988L7.86084 7.82605Z" fill="#0A5DB4"/>
<path d="M4.18842 13.8156L9.36843 16.0979L5.84176 16.5533L4.18842 13.8156Z" fill="#0A5DB4"/>
<path d="M4.18842 13.8156L9.36843 16.0979L5.84176 16.5533L4.18842 13.8156Z" fill="#0A5DB4"/>
<path d="M0.696472 7.69946L4.90777 8.91968L6.32925 10.9438L3.99509 10.9217L0.696472 7.69946Z" fill="#0A5DB4"/>
<path d="M0.696472 7.69946L4.90777 8.91968L6.32925 10.9438L3.99509 10.9217L0.696472 7.69946Z" fill="#0A5DB4"/>
<path d="M22.5181 18.2558L30.3312 23.7152L26.5879 22.8723L22.5181 18.2558Z" fill="#187CE4"/>
<path d="M20.5419 21.5765L26.5879 22.8723L29.0933 25.9463L20.5419 21.5765Z" fill="#187CE4"/>
<path d="M4.90778 8.91951L12.0858 10.988L6.32926 10.9437L4.90778 8.91951Z" fill="#187CE4"/>
<path d="M3.9951 10.9215L6.32926 10.9437L9.36839 16.098L3.9951 10.9215Z" fill="#187CE4"/>
<path d="M12.0858 10.988L22.5181 18.2558L13.6455 15.2418L12.0858 10.988Z" fill="#187CE4"/>
<path d="M9.3684 16.0981L13.6455 15.2418L20.5418 21.5765L9.3684 16.0981Z" fill="#187CE4"/>
<path d="M22.5181 18.2559L26.5878 22.8724L20.5418 21.5765L13.6454 15.2418L22.5181 18.2559Z" fill="#61AFFF"/>
<path d="M20.5039 6.42375L23.7498 9.28329L20.1174 7.96945L15.7895 6.19189L20.5039 6.42375Z" fill="#074A90"/>
<path d="M23.7499 9.28333L31.0919 17.3982L20.1175 7.96948L23.7499 9.28333Z" fill="#0A5DB4"/>
<path d="M15.7895 6.19175L20.1174 7.9693L2.41919 4.33691L15.7895 6.19175Z" fill="#0A5DB4"/>
<path d="M15.7895 6.19175L20.5038 6.42361L2.41919 4.33691L15.7895 6.19175Z" fill="#187CE4"/>
</svg>
