<svg width="99" height="16" viewBox="0 0 99 16" fill="none" xmlns="http://www.w3.org/2000/svg">
<g clip-path="url(#clip0)">
<mask id="mask0" mask-type="alpha" maskUnits="userSpaceOnUse" x="3" y="2" width="41" height="12">
<path d="M18.0188 2L12.9277 7.47661L18.2929 13.2466H13.6522L10.6171 10.0193L7.64074 13.2466H3L8.36525 7.51573L3.17623 2H7.77781L10.6562 5.14905L13.4368 2H18.0188Z" fill="#074A90"/>
<path d="M22.803 8.86532V13.2662H18.8868V2.01956H27.2088L26.0731 3.52563H22.803V7.39837H27.2088V2.01956H31.1838V8.86532H22.803Z" fill="#074A90"/>
<path d="M39.2905 6.83115V3.44739H31.9084V2H43.0697V6.73336L41.2095 7.45705L43.2851 8.61105V13.2466H31.7713V11.8188H39.2905V8.31766H32.4567V6.83115H39.2905Z" fill="#074A90"/>
</mask>
<g mask="url(#mask0)">
<path d="M-9.29034 -15.0699H55.5755V26.9221H-9.29034V-15.0699Z" fill="url(#paint0_linear)"/>
</g>
</g>
<defs>
<linearGradient id="paint0_linear" x1="-5.17151" y1="7.87418" x2="57.3051" y2="8.12318" gradientUnits="userSpaceOnUse">
<stop stop-color="#074A90"/>
<stop offset="0.583433" stop-color="#073F7A"/>
<stop offset="0.591687" stop-color="#1060B4"/>
<stop offset="1" stop-color="#115DAC"/>
</linearGradient>
<clipPath id="clip0">
<rect width="99" height="16" fill="white"/>
</clipPath>
</defs>
</svg>
